<svg id="undraw_active_options_8je6" xmlns="http://www.w3.org/2000/svg" width="888" height="613.913" viewBox="0 0 888 613.913">
  <defs>
    <style>
      .cls-1 {
        fill: #e6e6e6;
      }

      .cls-2 {
        fill: #fff;
      }

      .cls-3 {
        fill: #3f3d56;
      }

      .cls-4 {
        fill: #6c63ff;
      }

      .cls-5 {
        fill: #f2f2f2;
      }

      .cls-6 {
        fill: #a0616a;
      }

      .cls-7 {
        fill: #2f2e41;
      }
    </style>
  </defs>
  <path id="Path_220" data-name="Path 220" class="cls-1" d="M275.323,585.885,263.9,567.433a273.134,273.134,0,0,1,12.661-28.062l7.5,6.309-5.847-9.447c5.979-11.2,10.648-18.246,10.648-18.246s22.888,37.724,29.991,77.321l-15.595,23.07,17.015-13.186a110.507,110.507,0,0,1,.64,13.872c-.94,46.708-16.957,84.264-35.774,83.886s-33.31-38.55-32.37-85.257c.291-14.48,3.872-29.563,8.673-43.485Z" transform="translate(-156 -143.044)"/>
  <path id="Path_221" data-name="Path 221" class="cls-1" d="M223.65,606.483l-19.313-9.893a273.155,273.155,0,0,1-3.667-30.567l9.679,1.525-9.889-5.065c-.674-12.682-.317-21.123-.317-21.123s39.093,20.463,65.641,50.688l-1.425,27.81,7.75-20.083a110.512,110.512,0,0,1,7.718,11.544c23.338,40.47,29.041,80.9,12.736,90.3s-48.441-15.782-71.78-56.252c-7.235-12.546-11.966-27.309-15.053-41.708Z" transform="translate(-156 -143.044)"/>
  <path id="Path_222" data-name="Path 222" class="cls-1" d="M320.626,755.851c-22.254,1.424-46.5-.083-72.3,0V696.79c22.731,3.539,46.971,3.175,72.3,0Z" transform="translate(-156 -143.044)"/>
  <path id="Path_223" data-name="Path 223" class="cls-1" d="M689.193,342.668,453.019,380.7l-1-229.6L688.192,0Z"/>
  <path id="Path_224" data-name="Path 224" class="cls-2" d="M667.176,308.643l-204.15,44.032V160.534l204.15-110.8Z"/>
  <path id="Path_225" data-name="Path 225" class="cls-3" d="M647.162,132.514,475.035,209.6V182.55L647.162,97.517Z"/>
  <path id="Path_226" data-name="Path 226" class="cls-4" d="M647.162,204.567l-172.127,60.71V238.592l172.127-68.557Z"/>
  <path id="Path_227" data-name="Path 227" class="cls-1" d="M697.536,314.176a.645.645,0,0,1,1.241-.041l2.787,8.783,3.339,10.522a.645.645,0,0,1-.367.79l-6.452,2.689-5.671,2.363a.645.645,0,0,1-.874-.75l3.1-12.6Z" transform="translate(-156 -143.044)"/>
  <path id="Path_228" data-name="Path 228" class="cls-1" d="M687.185,379.667a1.065,1.065,0,0,1,2.048-.067l2.336,7.363,3.223,10.156a1.065,1.065,0,0,1-.605,1.3l-6.1,2.541-4.9,2.043a1.064,1.064,0,0,1-1.443-1.237l2.9-11.79Z" transform="translate(-156 -143.044)"/>
  <path id="Path_229" data-name="Path 229" class="cls-5" d="M647.162,276.62,475.035,320.959V292.631l172.127-52.667Z"/>
  <path id="Path_230" data-name="Path 230" class="cls-3" d="M799.159,295.026c0,6.027-2.7,12.02-6,13.374-3.275,1.342-5.909-2.386-5.909-8.318s2.634-11.9,5.909-13.334C796.459,285.3,799.159,289,799.159,295.026Z" transform="translate(-156 -143.044)"/>
  <path id="Path_231" data-name="Path 231" class="cls-2" d="M795.156,296.724c0,2.009-.9,4.014-2,4.477s-1.991-.785-1.991-2.783.89-4,1.991-4.473S795.156,294.715,795.156,296.724Z" transform="translate(-156 -143.044)"/>
  <path id="Path_232" data-name="Path 232" class="cls-4" d="M799.159,365.077c0,6.027-2.7,12.02-6,13.374-3.275,1.342-5.909-2.386-5.909-8.318s2.634-11.9,5.909-13.334C796.459,355.349,799.159,359.05,799.159,365.077Z" transform="translate(-156 -143.044)"/>
  <path id="Path_233" data-name="Path 233" class="cls-2" d="M795.156,366.776c0,2.009-.9,4.014-2,4.477s-1.991-.785-1.991-2.783.89-4,1.991-4.473S795.156,364.767,795.156,366.776Z" transform="translate(-156 -143.044)"/>
  <path id="Path_234" data-name="Path 234" class="cls-5" d="M799.159,435.128c0,6.027-2.7,12.02-6,13.374-3.275,1.342-5.909-2.386-5.909-8.318s2.634-11.9,5.909-13.334C796.459,425.4,799.159,429.1,799.159,435.128Z" transform="translate(-156 -143.044)"/>
  <path id="Path_235" data-name="Path 235" class="cls-2" d="M795.156,436.827c0,2.009-.9,4.014-2,4.477s-1.991-.785-1.991-2.783.89-4,1.991-4.473S795.156,434.818,795.156,436.827Z" transform="translate(-156 -143.044)"/>
  <path id="Path_236" data-name="Path 236" class="cls-1" d="M703.185,437.713a1.064,1.064,0,0,1,2.048-.067l2.336,7.363,3.223,10.156a1.065,1.065,0,0,1-.605,1.3l-6.1,2.541-4.9,2.043a1.064,1.064,0,0,1-1.443-1.237l2.9-11.79Z" transform="translate(-156 -143.044)"/>
  <path id="Path_237" data-name="Path 237" class="cls-6" d="M662.558,425.4l9.311-8.589s21.077-14.518,13.715-22.5-22.2,10.63-22.2,10.63l-9.208,6.032Z" transform="translate(-156 -143.044)"/>
  <path id="Path_238" data-name="Path 238" class="cls-7" d="M539.45,429.4l-5.424,7.465s-7.58,29.15,30.779,30.7c0,0,48.989,23.749,61.115,8.87s45.588-50.669,45.588-50.669l-19.684-20-40.113,41.925-38.914-19.5S552.752,417.126,539.45,429.4Z" transform="translate(-156 -143.044)"/>
  <path id="Path_239" data-name="Path 239" class="cls-1" d="M357.923,424.679,307.135,611.8l6.4,1.28,53.347-188.4Z"/>
  <path id="Path_240" data-name="Path 240" class="cls-1" d="M419.494,424.679,470.281,611.8l-6.4,1.28-53.347-188.4Z"/>
  <path id="Path_241" data-name="Path 241" class="cls-1" d="M384.8,420.84l8.517,191.269,7.4.329L391.194,418.28Z"/>
  <path id="Path_242" data-name="Path 242" class="cls-1" d="M564.469,560.857c0,4.851-13.281,10.059-30.712,11.733-18.708,1.8-34.911-1.119-34.911-6.634s16.2-10.948,34.911-12.059C551.188,552.862,564.469,556.006,564.469,560.857Z" transform="translate(-156 -143.044)"/>
  <path id="Path_243" data-name="Path 243" class="cls-7" d="M583.024,528.053l12.8,8.958s55.025,39.669,49.906,55.025-33.271,76.779-33.271,76.779L576.626,657.3l40.949-65.262L595.82,571.561,584.3,543.409Z" transform="translate(-156 -143.044)"/>
  <path id="Path_244" data-name="Path 244" class="cls-7" d="M533.118,505.019s-25.593,39.669-10.237,51.186,58.863,56.3,58.863,56.3l8.958,20.474,31.991,103.652,39.669-20.474-35.83-80.618s-3.839-29.432-16.635-46.067-17.915-40.949-17.915-40.949l3.839-11.517-22.912-36.661Z" transform="translate(-156 -143.044)"/>
  <path id="Path_245" data-name="Path 245" class="cls-7" d="M602.708,661.482l-23-7s-24.837-1.023-23.557,7.935S577.905,730.238,584.3,726.4s1.28-21.754,1.28-21.754Z" transform="translate(-156 -143.044)"/>
  <path id="Path_246" data-name="Path 246" class="cls-6" d="M395.672,237.21l-12.8,14.076,20.474,33.271,8.958-25.593Z"/>
  <path id="Path_247" data-name="Path 247" class="cls-4" d="M563.829,429.52,541.1,391.882l-7.983,1.808v12.8l-2.559,107.491,42.229-6.4S575.346,438.478,563.829,429.52Z" transform="translate(-156 -143.044)"/>
  <path id="Path_248" data-name="Path 248" class="cls-7" d="M552.312,428.24l-19.195-34.551-16.635,7.678L487.05,521.654l-17.915,34.551s58.864,29.432,72.94,0,15.356-94.694,15.356-94.694Z" transform="translate(-156 -143.044)"/>
  <path id="Path_249" data-name="Path 249" class="cls-7" d="M524.16,406.486l-7.678-5.119s-29.432-6.4-29.432,31.991c0,0-21.754,49.906-6.4,61.423s52.466,43.508,52.466,43.508l19.195-20.474L508.8,479.426l17.915-39.669S536.956,419.283,524.16,406.486Z" transform="translate(-156 -143.044)"/>
  <path id="Path_250" data-name="Path 250" class="cls-6" d="M533.118,529.333l8.958,8.958s15.356,20.474,23.034,12.8-11.517-21.754-11.517-21.754l-6.4-8.958Z" transform="translate(-156 -143.044)"/>
  <path id="Path_251" data-name="Path 251" class="cls-7" d="M562.346,417.907,584.3,471.748s8.958,26.873,8.958,37.11v28.153L568.948,505.02S555.743,421.65,562.346,417.907Z" transform="translate(-156 -143.044)"/>
  <path id="Path_252" data-name="Path 252" class="cls-7" d="M632.258,726.431s-6.339,24.96,1.981,27.073,78.129,3.9,78.173-7.9S667.1,724.063,667.1,724.063l-16.754-10.751Z" transform="translate(-156 -143.044)"/>
  <circle id="Ellipse_41" data-name="Ellipse 41" class="cls-6" cx="23.034" cy="23.034" r="23.034" transform="translate(388.634 214.816)"/>
  <path id="Path_253" data-name="Path 253" class="cls-7" d="M592.23,376.757s4.5-19.5,0-24v3s-3-10.5-9-7.5c0,0-7.5-6-9-3-8.824-7.978-47.953-.5-28.959,41.389,0,0,3.463-12.894,3.463-8.395,0,0,9-9,10.5-12S586.231,382.756,592.23,376.757Z" transform="translate(-156 -143.044)"/>
  <rect id="Rectangle_68" data-name="Rectangle 68" class="cls-3" width="888" height="2.241" transform="translate(0 611.672)"/>
</svg>
