<svg id="Group_21" data-name="Group 21" xmlns="http://www.w3.org/2000/svg" width="504.087" height="575" viewBox="0 0 504.087 575">
  <defs>
    <style>
      .cls-1 {
        fill: #3f3d56;
      }

      .cls-2 {
        fill: #e6e8ec;
      }

      .cls-3 {
        fill: #6c63ff;
      }

      .cls-4, .cls-5 {
        fill: #fff;
      }

      .cls-4 {
        opacity: 0.3;
      }
    </style>
  </defs>
  <g id="undraw_Mobile_application_mr4r" transform="translate(0)">
    <path id="Path_284" data-name="Path 284" class="cls-1" d="M504.087,1.854h0Z" transform="translate(0 573.146)"/>
    <path id="Path_258" data-name="Path 258" class="cls-1" d="M710.878,291.781v65.04a2.274,2.274,0,0,1-2.268,2.268H707V697.9a35.353,35.353,0,0,1-35.35,35.352H459.939A35.345,35.345,0,0,1,424.6,697.905V370.971h-1.169a1.6,1.6,0,0,1-1.6-1.594V332.361a1.6,1.6,0,0,1,1.6-1.6H424.6V316.814h-1.178a1.68,1.68,0,0,1-1.673-1.683V278.62a1.678,1.678,0,0,1,1.673-1.673H424.6V257.914h-1.2a1.483,1.483,0,0,1-1.485-1.485V236.505a1.492,1.492,0,0,1,1.485-1.5h1.2V194.667a35.343,35.343,0,0,1,35.341-35.342H671.644A35.352,35.352,0,0,1,707,194.667v94.846h1.614A2.274,2.274,0,0,1,710.878,291.781Z" transform="translate(-330.641 -159.325)"/>
    <rect id="Rectangle_71" data-name="Rectangle 71" class="cls-2" width="39.435" height="8.008" rx="2.542" transform="translate(203.529 18.128)"/>
    <circle id="Ellipse_42" data-name="Ellipse 42" class="cls-2" cx="4.542" cy="4.542" r="4.542" transform="translate(235.733 17.59)"/>
    <path id="Path_259" data-name="Path 259" class="cls-3" d="M690.273,201.854V701.029a22.429,22.429,0,0,1-22.429,22.419H465.189a22.365,22.365,0,0,1-10.358-2.525,20.956,20.956,0,0,1-2.179-1.287,22.447,22.447,0,0,1-9.893-18.607V201.854a22.428,22.428,0,0,1,22.43-22.429h30.33v3.892a18.468,18.468,0,0,0,18.468,18.468H617.054a18.468,18.468,0,0,0,18.468-18.468v-3.892h32.322a22.422,22.422,0,0,1,22.429,22.429Z" transform="translate(-332.665 -159.521)"/>
    <path id="Path_260" data-name="Path 260" class="cls-4" d="M690.273,633.538v71.456a22.429,22.429,0,0,1-22.429,22.419H465.189a22.367,22.367,0,0,1-10.358-2.525,20.974,20.974,0,0,1-2.179-1.287,22.447,22.447,0,0,1-9.893-18.607V633.568a185.148,185.148,0,0,1,247.513-.03Z" transform="translate(-332.665 -163.486)"/>
    <path id="Path_261" data-name="Path 261" class="cls-4" d="M678.34,725.5a22.193,22.193,0,0,1-10.378,2.545H465.308a22.366,22.366,0,0,1-10.358-2.525,120.97,120.97,0,0,1,223.394-.01Z" transform="translate(-333.734 -164.119)"/>
    <path id="Path_262" data-name="Path 262" class="cls-4" d="M634.669,727a13.43,13.43,0,0,1-6.28,1.54H505.758a13.531,13.531,0,0,1-6.268-1.528,73.2,73.2,0,0,1,135.181-.006Z" transform="translate(-337.075 -164.421)"/>
    <path id="Path_263" data-name="Path 263" class="cls-5" d="M618.065,374.235c-20.329,0-42.638-3.871-60.055-16.933-24.248-18.186-54.124-17.216-74.916-13.2a163.253,163.253,0,0,0-39.882,13.284l-.916-1.756a165.331,165.331,0,0,1,40.37-13.463c21.2-4.1,51.688-5.084,76.531,13.549,46.541,34.906,129.879,3.555,130.714,3.236l.71,1.849a240,240,0,0,1-48.231,11.741A184.392,184.392,0,0,1,618.065,374.235Z" transform="translate(-332.598 -161.084)"/>
    <path id="Path_264" data-name="Path 264" class="cls-4" d="M442.75,356.618s68.327-16.549,115.859,6.11,131.7-.168,131.7-.168" transform="translate(-332.672 -161.192)"/>
    <path id="Path_265" data-name="Path 265" class="cls-4" d="M507.251,382.3a130.182,130.182,0,0,1-24.584-2.455,165.328,165.328,0,0,1-40.37-13.462l.916-1.756a163.252,163.252,0,0,0,39.882,13.284c20.791,4.017,50.667,4.988,74.916-13.2,24.822-18.616,59.59-18.564,84.382-15.242a240,240,0,0,1,48.231,11.741l-.71,1.849c-.836-.321-84.172-31.672-130.714,3.236C542.907,378.511,524.187,382.3,507.251,382.3Z" transform="translate(-332.598 -161.162)"/>
    <path id="Path_266" data-name="Path 266" class="cls-4" d="M507.589,374.312c-34.3,0-64.753-12.3-65.21-12.492l.754-1.832c.678.279,68.415,27.627,114.968.064,47.358-28.044,131.61-3.011,132.455-2.755l-.574,1.9c-.837-.253-84.263-25.035-130.872,2.564C543.2,371.175,524.906,374.312,507.589,374.312Z" transform="translate(-332.609 -161.153)"/>
    <path id="Path_267" data-name="Path 267" class="cls-4" d="M442.76,359.4s68.317,22.659,115.849,0,131.664-2.141,131.664-2.141" transform="translate(-332.665 -161.172)"/>
    <path id="Path_283" data-name="Path 283" class="cls-4" d="M442.76,356.519s68.317-35.649,115.849,0,131.664,3.368,131.664,3.368" transform="translate(-332.665 -161.093)"/>
    <circle id="Ellipse_45" data-name="Ellipse 45" class="cls-5" cx="10.893" cy="10.893" r="10.893" transform="translate(216.433 536.393)"/>
  </g>
</svg>
